<?xml version="1.0" encoding="utf-8"?>
<!-- Generator: Adobe Illustrator 18.0.0, SVG Export Plug-In . SVG Version: 6.00 Build 0)  -->
<!DOCTYPE svg PUBLIC "-//W3C//DTD SVG 1.1//EN" "http://www.w3.org/Graphics/SVG/1.1/DTD/svg11.dtd">
<svg version="1.1" id="Layer_1" xmlns="http://www.w3.org/2000/svg" xmlns:xlink="http://www.w3.org/1999/xlink" x="0px" y="0px"
	 viewBox="0 0 36 36" enable-background="new 0 0 36 36" xml:space="preserve">
<g>
	<g>
		<path fill="#FFFFFF" d="M18,35.5C8.4,35.5,0.5,27.6,0.5,18S8.4,0.5,18,0.5S35.5,8.4,35.5,18S27.6,35.5,18,35.5z"/>
		<g>
			<path fill="#666666" d="M18,1c9.4,0,17,7.6,17,17s-7.6,17-17,17S1,27.4,1,18S8.6,1,18,1 M18,0C8.1,0,0,8.1,0,18
				c0,9.9,8.1,18,18,18s18-8.1,18-18C36,8.1,27.9,0,18,0L18,0z"/>
		</g>
	</g>
	<g>
		<defs>
			<circle id="SVGID_1_" cx="18" cy="18" r="17"/>
		</defs>
		<clipPath id="SVGID_2_">
			<use xlink:href="#SVGID_1_"  overflow="visible"/>
		</clipPath>
		<path clip-path="url(#SVGID_2_)" fill="#666666" d="M1.7,33.6c-0.1-1.1,0.6-1.8,1.5-2.2c2.7-1.3,5.4-2.6,8.2-3.8
			c0.8-0.4,1-1,1.3-1.7c0-0.1,0-0.1,0-0.2c0.1-0.8,0.1-0.8,0.8-0.9c0.1-0.8,0.1-1.6,0.2-2.4c0-0.1-0.1-0.2-0.1-0.3
			c-0.4-1-0.8-2-1.2-3.1c0-0.1-0.1-0.3-0.2-0.3c-1-0.9-0.9-2.1-0.9-3.2c0-0.1,0-0.1,0.1-0.2c0.6-0.4,0.4-0.9,0.4-1.4
			c0-1.1-0.1-2.2-0.2-3.3c-0.1-1.5,0.5-2.7,1.9-3.3c0.8-0.3,1.8-0.5,2.6-0.7c1.1-0.3,2.2-0.5,3.2-0.9c0.9-0.3,1.7-0.8,2.5-1.3
			c0.4,0.8,0.9,1.8,1,2.9c0,0.2,0.1,0.4,0.3,0.6c0.8,0.8,1.2,1.7,1,2.8c-0.1,1.3-0.2,2.6-0.2,3.9c0,0.2,0.1,0.4,0.2,0.6
			c0.1,0.2,0.3,0.5,0.3,0.7c-0.1,0.8-0.2,1.5-0.4,2.3c0,0.1-0.1,0.3-0.2,0.4c-0.5,0.2-0.5,0.7-0.7,1.1c-0.3,0.9-0.7,1.7-1.1,2.5
			c-0.1,0.1-0.1,0.3-0.1,0.4c0.1,0.7,0.1,1.5,0.2,2.3c0.9-0.2,0.8,0.4,0.9,0.9c0.2,0.8,0.5,1.5,1.4,1.9c2.4,1,4.8,2.2,7.2,3.3
			c0.3,0.1,0.6,0.3,0.9,0.5c0.9,0.5,1.6,1.1,1.6,2.3c-5.7,0-11.4,6-17.1,6C12.1,39.6,6.9,33.6,1.7,33.6z"/>
	</g>
</g>
</svg>
